<?xml version="1.0" encoding="iso-8859-1"?>
<!-- Generator: Adobe Illustrator 18.1.1, SVG Export Plug-In . SVG Version: 6.00 Build 0)  -->
<svg xmlns="http://www.w3.org/2000/svg" xmlns:xlink="http://www.w3.org/1999/xlink" version="1.1" id="Capa_1" x="0px" y="0px" viewBox="0 0 483.974 483.974" style="enable-background:new 0 0 483.974 483.974;" xml:space="preserve" width="512px" height="512px">
<g>
	<g>
		<path d="M80.687,401.511c-0.423,7.397-1.39,14.575-3.235,21.939c-1.423,5.69-0.602,22.037-5.56,25.483    c-10.226,7.096-30.978,1.715-42.773,2.203c-20.89,0.87-20.972,33.384,0,32.514c20.362-0.845,43.553,4.211,61.485-8.242    c11.632-8.072,14.883-21.663,16.794-34.896c0.74-5.145,1.609-10.177,2.479-15.184c37.562,25.873,83.058,41.057,132.114,41.057    c48.812,0,94.105-15.022,131.553-40.659c0.016,2.78,0,5.56,0.163,8.348c0.78,13.038,7.576,22.963,18.777,29.312    c19.135,10.852,43.423,7.113,64.403,8.08c20.972,0.967,20.874-31.547,0-32.514c-13.737-0.634-27.67,0.902-41.261-1.707    c-9.608-1.845-9.836-3.471-9.551-12.924c0.26-8.779,0.634-17.346,0.545-25.995c42.342-42.22,68.556-100.615,68.556-165.132    c0-47.414-14.184-91.487-38.489-128.301c2.284-2.552,3.829-5.983,3.942-10.396c0.593-22.232,17.103-53.901-14.623-63.378    c-12.38-3.699-24.621-2.601-37.261-1.065c-9.494,1.146-19.118,1.715-28.751,2.04C325.366,11.73,285.056,0,241.983,0    c-40.635,0-78.831,10.413-112.101,28.694c-25.199-3.82-50.422-8.259-75.62-1.691c-6.95,1.813-11.973,8.527-11.933,15.68    c0.114,18.119,10.047,34.034,10.161,51.82c0.008,0.894,0.146,1.691,0.26,2.504C25.129,135.333,8.798,182.348,8.798,233.193    C8.798,299.375,36.411,359.064,80.687,401.511z M303.825,65.923c11.169,0,20.216,9.055,20.216,20.216s-9.055,20.224-20.216,20.224    c-11.169,0-20.224-9.055-20.224-20.224S292.656,65.923,303.825,65.923z M160.526,65.923c11.169,0,20.224,9.055,20.224,20.216    s-9.055,20.224-20.224,20.224c-11.169,0-20.216-9.055-20.216-20.224S149.358,65.923,160.526,65.923z M86.808,137.47    l33.002,136.706l104.33-132.496c5.113,0.154,10.258,0.268,15.469,0.268c10.25,0,20.313-0.341,30.149-0.878l68.256,108.622    l66.898-108.525c22.337,8.958,35.457,29.247,35.457,71.548c0,81.083-48.097,150.891-117.303,182.576l-81.083-93.511    L178.97,404.137c-81.237-25.711-140.12-101.68-140.12-191.42C38.85,163.051,56.919,143.721,86.808,137.47z" fill="#FFFFFF"/>
	</g>
</g>
<g>
</g>
<g>
</g>
<g>
</g>
<g>
</g>
<g>
</g>
<g>
</g>
<g>
</g>
<g>
</g>
<g>
</g>
<g>
</g>
<g>
</g>
<g>
</g>
<g>
</g>
<g>
</g>
<g>
</g>
</svg>
