<?xml version="1.0" standalone="no"?>
<!DOCTYPE svg PUBLIC "-//W3C//DTD SVG 20010904//EN"
 "http://www.w3.org/TR/2001/REC-SVG-20010904/DTD/svg10.dtd">
<svg version="1.0" xmlns="http://www.w3.org/2000/svg"
 width="512.000000pt" height="512.000000pt" viewBox="0 0 512.000000 512.000000"
 preserveAspectRatio="xMidYMid meet">
<metadata>
Created by potrace 1.14, written by Peter Selinger 2001-2017
</metadata>
<g transform="translate(0.000000,512.000000) scale(0.100000,-0.100000)"
fill="#000000" stroke="none">
<path d="M817 4646 c-145 -110 -280 -310 -333 -493 -37 -128 -51 -351 -29
-458 19 -92 28 -125 57 -199 17 -44 42 -98 55 -118 12 -21 23 -42 23 -48 0
-21 16 -7 55 48 83 118 417 430 491 459 21 8 17 18 -18 65 -71 93 -139 254
-155 368 -9 63 -9 191 1 280 7 66 6 78 -11 98 -10 12 -34 25 -53 28 -30 5 -43
0 -83 -30z"/>
<path d="M4200 4673 c-8 -4 -23 -16 -34 -27 -15 -18 -17 -30 -10 -81 14 -106
9 -284 -10 -355 -29 -108 -66 -191 -124 -279 -33 -51 -51 -86 -44 -89 23 -7
168 -123 257 -205 93 -84 178 -177 245 -267 43 -57 42 -57 88 35 52 103 82
197 100 310 11 69 6 267 -7 340 -37 194 -143 388 -289 532 -86 85 -125 104
-172 86z"/>
<path d="M2428 4095 c-2 -1 -45 -5 -97 -9 -52 -4 -113 -11 -135 -16 -23 -4
-59 -11 -81 -14 -22 -4 -47 -8 -55 -11 -8 -2 -26 -6 -40 -9 -215 -37 -523
-166 -749 -313 -228 -148 -452 -371 -585 -581 -122 -194 -219 -452 -241 -647
-4 -33 -9 -69 -12 -80 -2 -11 -4 -75 -4 -141 -1 -183 23 -329 81 -507 30 -91
107 -263 114 -256 3 2 58 56 123 120 103 101 238 217 314 271 13 10 56 41 95
69 l71 51 -13 57 c-58 245 95 488 344 547 71 17 187 9 256 -16 104 -39 223
-149 256 -236 7 -17 17 -24 37 -24 40 -1 160 -51 224 -93 66 -45 124 -98 179
-169 24 -29 46 -53 50 -53 4 0 30 28 57 63 112 139 239 220 406 256 15 4 27
12 27 19 0 19 66 108 110 148 144 130 358 151 533 53 103 -57 192 -181 217
-301 14 -67 5 -211 -16 -244 -2 -4 33 -34 78 -66 173 -121 331 -258 520 -449
17 -17 141 292 162 406 21 111 26 141 31 180 6 54 7 312 1 331 -3 8 -7 38 -11
68 -19 180 -112 430 -229 621 -100 163 -280 366 -431 486 -156 124 -412 269
-599 339 -129 48 -345 104 -456 120 -25 3 -56 8 -70 10 -14 2 -47 6 -75 10
-48 7 -381 16 -387 10z"/>
<path d="M2113 2158 c-2 -136 -100 -298 -223 -370 -168 -98 -397 -76 -534 53
-17 16 -35 29 -40 29 -5 0 -38 -21 -75 -47 -130 -91 -258 -199 -393 -331
l-137 -134 41 -57 c124 -171 309 -347 493 -470 65 -44 102 -66 227 -135 124
-67 392 -165 528 -192 14 -3 45 -10 70 -15 25 -6 63 -13 84 -15 22 -3 43 -7
46 -9 42 -26 630 -26 720 0 8 3 29 7 45 9 24 3 149 28 200 40 127 31 319 102
460 173 290 144 534 341 722 586 l63 82 -132 131 c-129 126 -263 239 -400 337
-37 26 -70 47 -75 47 -4 0 -26 -17 -48 -36 -161 -145 -433 -142 -596 7 -79 73
-137 182 -146 275 -4 38 -10 54 -20 54 -32 0 -135 -65 -187 -119 -74 -75 -100
-112 -146 -201 -40 -79 -65 -100 -109 -93 -34 5 -59 30 -84 83 -54 116 -172
249 -266 299 -63 33 -88 38 -88 19z"/>
</g>
</svg>
